<svg width="342" height="71" viewBox="0 0 342 71" fill="none" xmlns="http://www.w3.org/2000/svg">
<path d="M0.703125 68.8125C0.890625 68.1562 1.0625 67.3438 1.21875 66.375C1.40625 65.4062 1.5625 64.2031 1.6875 62.7656C1.8125 61.3281 1.90625 59.625 1.96875 57.6562C2.03125 55.6562 2.0625 53.3281 2.0625 50.6719V20.1562C2.0625 17.5 2.03125 15.1875 1.96875 13.2188C1.90625 11.2187 1.8125 9.5 1.6875 8.0625C1.5625 6.59375 1.40625 5.375 1.21875 4.40625C1.0625 3.4375 0.890625 2.625 0.703125 1.96875V1.78125H11.9531V1.96875C11.7656 2.625 11.5781 3.4375 11.3906 4.40625C11.2344 5.375 11.0938 6.59375 10.9688 8.0625C10.875 9.5 10.7812 11.2187 10.6875 13.2188C10.625 15.1875 10.5938 17.5 10.5938 20.1562V30.6094L37.9688 8.25C41.0312 5.75 42.5625 3.59375 42.5625 1.78125H55.7344V1.96875C53.8906 2.40625 52.0156 3.25 50.1094 4.5C48.2344 5.71875 46.2344 7.21875 44.1094 9L19.9219 29.25L49.0312 61.2188C50.25 62.4688 51.2812 63.5156 52.125 64.3594C53 65.1719 53.7656 65.8594 54.4219 66.4219C55.0781 66.9531 55.6719 67.4062 56.2031 67.7812C56.7656 68.125 57.3438 68.4688 57.9375 68.8125V69H44.2031C44.0781 68.7188 43.8594 68.3594 43.5469 67.9219C43.2656 67.4844 42.9219 67.0312 42.5156 66.5625C42.1406 66.0938 41.7188 65.6094 41.25 65.1094C40.8125 64.6094 40.3906 64.1406 39.9844 63.7031L10.5938 31.4531V50.6719C10.5938 53.3281 10.625 55.6562 10.6875 57.6562C10.7812 59.625 10.875 61.3281 10.9688 62.7656C11.0938 64.2031 11.2344 65.4062 11.3906 66.375C11.5781 67.3438 11.7656 68.1562 11.9531 68.8125V69H0.703125V68.8125ZM79.7906 1.78125L128.072 53.1562V20.1562C128.072 17.5 128.041 15.1875 127.978 13.2188C127.916 11.2187 127.822 9.5 127.697 8.0625C127.572 6.59375 127.416 5.375 127.228 4.40625C127.072 3.4375 126.9 2.625 126.713 1.96875V1.78125H135.056V1.96875C134.869 2.625 134.697 3.4375 134.541 4.40625C134.384 5.375 134.244 6.59375 134.119 8.0625C133.994 9.5 133.9 11.2187 133.838 13.2188C133.775 15.1875 133.744 17.5 133.744 20.1562V69.9375H132.103L83.8219 18.6094V50.6719C83.8219 53.3281 83.8531 55.6562 83.9156 57.6562C83.9781 59.625 84.0719 61.3281 84.1969 62.7656C84.3219 64.2031 84.4625 65.4062 84.6188 66.375C84.775 67.3438 84.9469 68.1562 85.1344 68.8125V69H76.7906V68.8125C76.9781 68.1562 77.15 67.3438 77.3063 66.375C77.4938 65.4062 77.65 64.2031 77.775 62.7656C77.9 61.3281 77.9938 59.625 78.0563 57.6562C78.1188 55.6562 78.15 53.3281 78.15 50.6719V20.1562C78.15 17.5 78.1188 15.1875 78.0563 13.2188C77.9938 11.2187 77.9 9.5 77.775 8.0625C77.65 6.59375 77.4938 5.375 77.3063 4.40625C77.15 3.4375 76.9781 2.625 76.7906 1.96875V1.78125H79.7906ZM193.191 0.65625C198.409 0.65625 203.222 1.51562 207.628 3.23438C212.066 4.92188 215.894 7.3125 219.113 10.4062C222.331 13.4687 224.847 17.1562 226.659 21.4688C228.472 25.7812 229.378 30.5469 229.378 35.7656C229.378 38.7344 229.034 41.6562 228.347 44.5312C227.659 47.4062 226.644 50.125 225.3 52.6875C223.988 55.25 222.363 57.625 220.425 59.8125C218.488 61.9688 216.269 63.8438 213.769 65.4375C211.3 67 208.566 68.2188 205.566 69.0938C202.566 70 199.331 70.4531 195.863 70.4531C190.644 70.4531 185.816 69.625 181.378 67.9688C176.972 66.2812 173.159 63.9062 169.941 60.8438C166.722 57.7812 164.206 54.1094 162.394 49.8281C160.581 45.5156 159.675 40.7344 159.675 35.4844C159.675 32.5156 160.019 29.5938 160.706 26.7188C161.394 23.8438 162.394 21.1094 163.706 18.5156C165.05 15.9219 166.675 13.5469 168.581 11.3906C170.519 9.20312 172.722 7.3125 175.191 5.71875C177.691 4.125 180.441 2.89063 183.441 2.01562C186.472 1.10938 189.722 0.65625 193.191 0.65625ZM195.863 66.2344C199.331 66.2344 202.503 65.6094 205.378 64.3594C208.253 63.1094 210.722 61.2969 212.784 58.9219C214.878 56.5469 216.503 53.6562 217.659 50.25C218.816 46.8125 219.394 42.9219 219.394 38.5781C219.394 33.7656 218.831 29.3125 217.706 25.2188C216.613 21.0938 214.972 17.5312 212.784 14.5312C210.597 11.5 207.863 9.14062 204.581 7.45312C201.331 5.73437 197.534 4.875 193.191 4.875C189.722 4.875 186.55 5.5 183.675 6.75C180.8 7.96875 178.316 9.75 176.222 12.0938C174.159 14.4375 172.55 17.3125 171.394 20.7188C170.238 24.125 169.659 28 169.659 32.3438C169.659 37.125 170.206 41.5938 171.3 45.75C172.394 49.875 174.034 53.4531 176.222 56.4844C178.409 59.5156 181.144 61.9062 184.425 63.6562C187.706 65.375 191.519 66.2344 195.863 66.2344ZM277.481 39.6094L260.887 60.6562C260.262 61.4062 259.653 62.1875 259.059 63C258.466 63.7812 257.934 64.5469 257.466 65.2969C256.997 66.0469 256.606 66.75 256.294 67.4062C256.012 68.0312 255.872 68.5625 255.872 69H246.778V68.8125C247.466 68.2188 248.434 67.3125 249.684 66.0938C250.966 64.875 252.325 63.3438 253.762 61.5L274.387 35.5781L253.2 7.73438C252.044 6.23438 250.903 4.98437 249.778 3.98438C248.653 2.95312 247.809 2.28125 247.247 1.96875V1.78125H261.919C261.919 2.15625 261.966 2.64062 262.059 3.23438C262.184 3.82813 262.403 4.53125 262.716 5.34375C263.028 6.125 263.45 7 263.981 7.96875C264.544 8.9375 265.262 9.98438 266.137 11.1094L279.684 28.875L294.637 10.1719C295.2 9.48437 295.747 8.73437 296.278 7.92188C296.841 7.10938 297.325 6.32812 297.731 5.57812C298.169 4.79687 298.512 4.07812 298.762 3.42188C299.044 2.76562 299.184 2.21875 299.184 1.78125H308.278V1.96875C307.966 2.21875 307.622 2.51563 307.247 2.85938C306.872 3.20312 306.434 3.625 305.934 4.125C305.466 4.625 304.934 5.21875 304.341 5.90625C303.747 6.59375 303.075 7.40625 302.325 8.34375L282.778 33L304.622 61.5938C306.122 63.5312 307.512 65.1406 308.794 66.4219C310.106 67.6719 311.059 68.4688 311.653 68.8125V69H297.075C297.075 68.2812 296.778 67.0938 296.184 65.4375C295.591 63.7812 294.481 61.8594 292.856 59.6719L277.481 39.6094ZM331.913 64.875C331.913 64.1875 332.038 63.5469 332.288 62.9531C332.569 62.3281 332.928 61.7969 333.366 61.3594C333.834 60.8906 334.366 60.5312 334.959 60.2812C335.584 60 336.241 59.8594 336.928 59.8594C337.647 59.8594 338.303 60 338.897 60.2812C339.522 60.5312 340.053 60.8906 340.491 61.3594C340.959 61.7969 341.319 62.3281 341.569 62.9531C341.85 63.5469 341.991 64.1875 341.991 64.875C341.991 66.3125 341.506 67.5156 340.538 68.4844C339.569 69.4531 338.366 69.9375 336.928 69.9375C336.241 69.9375 335.584 69.7969 334.959 69.5156C334.366 69.2656 333.834 68.9219 333.366 68.4844C332.928 68.0156 332.569 67.4844 332.288 66.8906C332.038 66.2656 331.913 65.5938 331.913 64.875Z" fill="white"/>
</svg>
