<svg width="328" height="71" viewBox="0 0 328 71" fill="none" xmlns="http://www.w3.org/2000/svg">
<path d="M17.2941 54.814C13.9888 54.814 11.0535 54.148 8.48813 52.816C5.97213 51.4347 3.9988 49.56 2.56813 47.192C1.13747 44.7747 0.422133 42.012 0.422133 38.904V18.036H11.7441V38.756C11.7441 39.9893 11.9415 41.05 12.3361 41.938C12.7801 42.826 13.4215 43.5167 14.2601 44.01C15.0988 44.5033 16.1101 44.75 17.2941 44.75C18.9715 44.75 20.3035 44.232 21.2901 43.196C22.2768 42.1107 22.7701 40.6307 22.7701 38.756V18.036H34.0921V38.83C34.0921 41.9873 33.3768 44.7747 31.9461 47.192C30.5155 49.56 28.5421 51.4347 26.0261 52.816C23.5101 54.148 20.5995 54.814 17.2941 54.814ZM63.6968 54V33.502C63.6968 31.6273 63.1048 30.1227 61.9208 28.988C60.7861 27.804 59.3308 27.212 57.5548 27.212C56.3214 27.212 55.2361 27.4833 54.2988 28.026C53.3614 28.5193 52.6214 29.2593 52.0788 30.246C51.5361 31.1833 51.2648 32.2687 51.2648 33.502L46.8988 31.356C46.8988 28.544 47.5154 26.0773 48.7488 23.956C49.9821 21.8347 51.6841 20.2067 53.8548 19.072C56.0748 17.888 58.5661 17.296 61.3288 17.296C63.9928 17.296 66.3361 17.9373 68.3588 19.22C70.4308 20.4533 72.0588 22.106 73.2428 24.178C74.4268 26.25 75.0188 28.5193 75.0188 30.986V54H63.6968ZM39.9428 54V18.036H51.2648V54H39.9428ZM96.3504 54.74C92.9464 54.74 89.9124 53.926 87.2484 52.298C84.6337 50.67 82.5617 48.45 81.0324 45.638C79.5524 42.826 78.8124 39.6193 78.8124 36.018C78.8124 32.4167 79.5524 29.21 81.0324 26.398C82.5617 23.586 84.6337 21.366 87.2484 19.738C89.9124 18.11 92.9464 17.296 96.3504 17.296C98.8171 17.296 101.037 17.7647 103.01 18.702C105.033 19.6393 106.686 20.9467 107.968 22.624C109.3 24.252 110.04 26.1267 110.188 28.248V43.418C110.04 45.5393 109.325 47.4633 108.042 49.19C106.76 50.8673 105.107 52.224 103.084 53.26C101.062 54.2467 98.8171 54.74 96.3504 54.74ZM98.3484 44.528C99.9764 44.528 101.382 44.1827 102.566 43.492C103.75 42.752 104.688 41.7407 105.378 40.458C106.069 39.1753 106.414 37.6953 106.414 36.018C106.414 34.3407 106.069 32.8853 105.378 31.652C104.737 30.3693 103.8 29.358 102.566 28.618C101.382 27.878 100.001 27.508 98.4224 27.508C96.8437 27.508 95.4377 27.878 94.2044 28.618C93.0204 29.358 92.0584 30.3693 91.3184 31.652C90.6277 32.9347 90.2824 34.39 90.2824 36.018C90.2824 37.646 90.6277 39.1013 91.3184 40.384C92.0091 41.6667 92.9711 42.678 94.2044 43.418C95.4377 44.158 96.8191 44.528 98.3484 44.528ZM117.07 54H105.97V44.306L107.672 35.574L105.748 26.842V0.275999H117.07V54ZM138.806 54.74C135.501 54.74 132.541 53.926 129.926 52.298C127.361 50.67 125.314 48.45 123.784 45.638C122.304 42.826 121.564 39.6193 121.564 36.018C121.564 32.4167 122.304 29.21 123.784 26.398C125.314 23.586 127.361 21.366 129.926 19.738C132.541 18.11 135.501 17.296 138.806 17.296C141.224 17.296 143.394 17.7647 145.318 18.702C147.292 19.6393 148.895 20.9467 150.128 22.624C151.362 24.252 152.052 26.1267 152.2 28.248V43.788C152.052 45.9093 151.362 47.8087 150.128 49.486C148.944 51.114 147.366 52.3967 145.392 53.334C143.419 54.2713 141.224 54.74 138.806 54.74ZM141.1 44.528C143.518 44.528 145.466 43.7387 146.946 42.16C148.426 40.532 149.166 38.4847 149.166 36.018C149.166 34.3407 148.821 32.8607 148.13 31.578C147.489 30.2953 146.552 29.3087 145.318 28.618C144.134 27.878 142.753 27.508 141.174 27.508C139.596 27.508 138.19 27.878 136.956 28.618C135.772 29.3087 134.81 30.2953 134.07 31.578C133.38 32.8607 133.034 34.3407 133.034 36.018C133.034 37.646 133.38 39.1013 134.07 40.384C134.761 41.6667 135.723 42.678 136.956 43.418C138.19 44.158 139.571 44.528 141.1 44.528ZM148.722 54V44.306L150.424 35.574L148.722 26.842V18.036H159.822V54H148.722ZM190.29 54V33.502C190.29 31.6273 189.698 30.1227 188.514 28.988C187.379 27.804 185.924 27.212 184.148 27.212C182.915 27.212 181.829 27.4833 180.892 28.026C179.955 28.5193 179.215 29.2593 178.672 30.246C178.129 31.1833 177.858 32.2687 177.858 33.502L173.492 31.356C173.492 28.544 174.109 26.0773 175.342 23.956C176.575 21.8347 178.277 20.2067 180.448 19.072C182.668 17.888 185.159 17.296 187.922 17.296C190.586 17.296 192.929 17.9373 194.952 19.22C197.024 20.4533 198.652 22.106 199.836 24.178C201.02 26.25 201.612 28.5193 201.612 30.986V54H190.29ZM166.536 54V18.036H177.858V54H166.536ZM222.87 70.132C218.923 70.132 215.445 69.4413 212.436 68.06C209.476 66.728 207.132 64.8287 205.406 62.362L212.362 55.406C213.644 56.9353 215.075 58.0947 216.654 58.884C218.282 59.6733 220.23 60.068 222.5 60.068C225.312 60.068 227.507 59.3773 229.086 57.996C230.714 56.6147 231.528 54.666 231.528 52.15V42.974L233.452 35.13L231.75 27.286V18.036H242.85V51.854C242.85 55.554 241.986 58.7607 240.26 61.474C238.533 64.1873 236.165 66.3087 233.156 67.838C230.146 69.3673 226.718 70.132 222.87 70.132ZM222.352 52.89C219.046 52.89 216.111 52.1007 213.546 50.522C210.98 48.9433 208.958 46.7973 207.478 44.084C205.998 41.3707 205.258 38.3613 205.258 35.056C205.258 31.7013 205.998 28.692 207.478 26.028C208.958 23.3147 210.98 21.1933 213.546 19.664C216.111 18.0853 219.046 17.296 222.352 17.296C224.818 17.296 227.014 17.7647 228.938 18.702C230.911 19.59 232.49 20.8727 233.674 22.55C234.907 24.178 235.598 26.0773 235.746 28.248V41.938C235.598 44.0593 234.907 45.9587 233.674 47.636C232.49 49.264 230.911 50.5467 228.938 51.484C226.964 52.4213 224.769 52.89 222.352 52.89ZM224.498 42.826C226.076 42.826 227.433 42.4807 228.568 41.79C229.752 41.0993 230.64 40.1867 231.232 39.052C231.873 37.868 232.194 36.536 232.194 35.056C232.194 33.576 231.873 32.244 231.232 31.06C230.64 29.876 229.752 28.9387 228.568 28.248C227.433 27.5573 226.076 27.212 224.498 27.212C222.968 27.212 221.612 27.5573 220.428 28.248C219.244 28.9387 218.331 29.876 217.69 31.06C217.048 32.244 216.728 33.576 216.728 35.056C216.728 36.4373 217.048 37.7447 217.69 38.978C218.331 40.162 219.219 41.0993 220.354 41.79C221.538 42.4807 222.919 42.826 224.498 42.826ZM264.604 54.74C261.299 54.74 258.339 53.926 255.724 52.298C253.159 50.67 251.112 48.45 249.582 45.638C248.102 42.826 247.362 39.6193 247.362 36.018C247.362 32.4167 248.102 29.21 249.582 26.398C251.112 23.586 253.159 21.366 255.724 19.738C258.339 18.11 261.299 17.296 264.604 17.296C267.022 17.296 269.192 17.7647 271.116 18.702C273.09 19.6393 274.693 20.9467 275.926 22.624C277.16 24.252 277.85 26.1267 277.998 28.248V43.788C277.85 45.9093 277.16 47.8087 275.926 49.486C274.742 51.114 273.164 52.3967 271.19 53.334C269.217 54.2713 267.022 54.74 264.604 54.74ZM266.898 44.528C269.316 44.528 271.264 43.7387 272.744 42.16C274.224 40.532 274.964 38.4847 274.964 36.018C274.964 34.3407 274.619 32.8607 273.928 31.578C273.287 30.2953 272.35 29.3087 271.116 28.618C269.932 27.878 268.551 27.508 266.972 27.508C265.394 27.508 263.988 27.878 262.754 28.618C261.57 29.3087 260.608 30.2953 259.868 31.578C259.178 32.8607 258.832 34.3407 258.832 36.018C258.832 37.646 259.178 39.1013 259.868 40.384C260.559 41.6667 261.521 42.678 262.754 43.418C263.988 44.158 265.369 44.528 266.898 44.528ZM274.52 54V44.306L276.222 35.574L274.52 26.842V18.036H285.62V54H274.52ZM316.088 54V33.502C316.088 31.6273 315.496 30.1227 314.312 28.988C313.178 27.804 311.722 27.212 309.946 27.212C308.713 27.212 307.628 27.4833 306.69 28.026C305.753 28.5193 305.013 29.2593 304.47 30.246C303.928 31.1833 303.656 32.2687 303.656 33.502L299.29 31.356C299.29 28.544 299.907 26.0773 301.14 23.956C302.374 21.8347 304.076 20.2067 306.246 19.072C308.466 17.888 310.958 17.296 313.72 17.296C316.384 17.296 318.728 17.9373 320.75 19.22C322.822 20.4533 324.45 22.106 325.634 24.178C326.818 26.25 327.41 28.5193 327.41 30.986V54H316.088ZM292.334 54V18.036H303.656V54H292.334Z" fill="#0821AF"/>
</svg>
